<svg viewBox="0 0 64 37" xmlns="http://www.w3.org/2000/svg" xml:space="preserve" fill-rule="evenodd"
  stroke-linecap="round" stroke-linejoin="round" clip-rule="evenodd">
  <g fill="none" stroke="currentColor">
    <path d="M60.5 5.5a2 2 0 0 0-2-2h-39a2 2 0 0 0-2 2v26a2 2 0 0 0 2 2h39a2 2 0 0 0 2-2v-26Z"/>
    <path d="M59.399 4.591 39 21.313 18.601 4.591"/>
    <path d="M63.5 4.5c0-2.208-1.792-4-4-4h-41c-2.208 0-4 1.792-4 4v28c0 2.208 1.792 4 4 4h41c2.208 0 4-1.792 4-4v-28Z"/>
  </g>
  <path fill="none" stroke="currentColor" stroke-linejoin="miter" d="M3.5 21.5h9m-12-3h12m-9-3h9"/>
</svg>